<svg xmlns="http://www.w3.org/2000/svg" xmlns:xlink="http://www.w3.org/1999/xlink" width="1288" zoomAndPan="magnify" viewBox="0 0 966 243.75" height="325" preserveAspectRatio="xMidYMid meet" version="1.0"><defs><g/><clipPath id="26e46fd949"><path d="M 2.710938 22.527344 L 963.226562 22.527344 L 963.226562 221.824219 L 2.710938 221.824219 Z M 2.710938 22.527344 " clip-rule="nonzero"/></clipPath><clipPath id="f64b4e6bf1"><path d="M 197 22.527344 L 203 22.527344 L 203 221.824219 L 197 221.824219 Z M 197 22.527344 " clip-rule="nonzero"/></clipPath><clipPath id="df94b73ab8"><path d="M 40.828125 67.167969 L 168.933594 67.167969 L 168.933594 192.1875 L 40.828125 192.1875 Z M 40.828125 67.167969 " clip-rule="nonzero"/></clipPath><clipPath id="1b332431a9"><path d="M 234.890625 68.003906 L 936.695312 68.003906 L 936.695312 173.417969 L 234.890625 173.417969 Z M 234.890625 68.003906 " clip-rule="nonzero"/></clipPath></defs><g clip-path="url(#26e46fd949)"><path fill="#000000" d="M 38.980469 22.527344 L 926.957031 22.527344 C 928.144531 22.527344 929.328125 22.585938 930.511719 22.703125 C 931.691406 22.820312 932.863281 22.992188 934.027344 23.222656 C 935.191406 23.457031 936.34375 23.742188 937.480469 24.089844 C 938.613281 24.433594 939.730469 24.832031 940.828125 25.285156 C 941.925781 25.742188 942.996094 26.246094 944.042969 26.804688 C 945.089844 27.367188 946.105469 27.976562 947.09375 28.632812 C 948.082031 29.292969 949.035156 30 949.949219 30.753906 C 950.867188 31.503906 951.746094 32.300781 952.585938 33.140625 C 953.425781 33.980469 954.222656 34.859375 954.976562 35.777344 C 955.726562 36.691406 956.433594 37.644531 957.09375 38.632812 C 957.753906 39.617188 958.363281 40.636719 958.921875 41.683594 C 959.480469 42.730469 959.988281 43.800781 960.441406 44.898438 C 960.898438 45.992188 961.296875 47.109375 961.640625 48.246094 C 961.984375 49.378906 962.273438 50.53125 962.503906 51.695312 C 962.738281 52.859375 962.910156 54.03125 963.027344 55.210938 C 963.144531 56.394531 963.203125 57.578125 963.203125 58.761719 L 963.203125 185.585938 C 963.203125 186.773438 963.144531 187.957031 963.027344 189.140625 C 962.910156 190.320312 962.738281 191.492188 962.503906 192.65625 C 962.273438 193.820312 961.984375 194.972656 961.640625 196.105469 C 961.296875 197.242188 960.898438 198.359375 960.441406 199.453125 C 959.988281 200.550781 959.480469 201.621094 958.921875 202.667969 C 958.363281 203.714844 957.753906 204.734375 957.09375 205.71875 C 956.433594 206.707031 955.726562 207.65625 954.976562 208.574219 C 954.222656 209.492188 953.425781 210.371094 952.585938 211.210938 C 951.746094 212.050781 950.867188 212.84375 949.949219 213.597656 C 949.035156 214.351562 948.082031 215.058594 947.09375 215.714844 C 946.105469 216.375 945.089844 216.984375 944.042969 217.542969 C 942.996094 218.105469 941.925781 218.609375 940.828125 219.066406 C 939.730469 219.519531 938.613281 219.917969 937.480469 220.261719 C 936.34375 220.609375 935.191406 220.894531 934.027344 221.128906 C 932.863281 221.359375 931.691406 221.53125 930.511719 221.648438 C 929.328125 221.765625 928.144531 221.824219 926.957031 221.824219 L 38.980469 221.824219 C 37.792969 221.824219 36.609375 221.765625 35.429688 221.648438 C 34.246094 221.53125 33.074219 221.359375 31.910156 221.128906 C 30.746094 220.894531 29.59375 220.609375 28.460938 220.261719 C 27.324219 219.917969 26.207031 219.519531 25.109375 219.066406 C 24.015625 218.609375 22.941406 218.105469 21.894531 217.542969 C 20.847656 216.984375 19.832031 216.375 18.84375 215.714844 C 17.855469 215.058594 16.90625 214.351562 15.988281 213.597656 C 15.070312 212.84375 14.191406 212.050781 13.351562 211.210938 C 12.511719 210.371094 11.714844 209.492188 10.964844 208.574219 C 10.210938 207.65625 9.503906 206.707031 8.84375 205.71875 C 8.183594 204.734375 7.574219 203.714844 7.015625 202.667969 C 6.457031 201.621094 5.949219 200.550781 5.496094 199.453125 C 5.042969 198.359375 4.640625 197.242188 4.296875 196.105469 C 3.953125 194.972656 3.664062 193.820312 3.433594 192.65625 C 3.203125 191.492188 3.027344 190.320312 2.910156 189.140625 C 2.792969 187.957031 2.738281 186.773438 2.738281 185.585938 L 2.738281 58.761719 C 2.738281 57.578125 2.792969 56.394531 2.910156 55.210938 C 3.027344 54.03125 3.203125 52.859375 3.433594 51.695312 C 3.664062 50.53125 3.953125 49.378906 4.296875 48.246094 C 4.640625 47.109375 5.042969 45.992188 5.496094 44.898438 C 5.949219 43.800781 6.457031 42.730469 7.015625 41.683594 C 7.574219 40.636719 8.183594 39.617188 8.84375 38.632812 C 9.503906 37.644531 10.210938 36.691406 10.964844 35.777344 C 11.714844 34.859375 12.511719 33.980469 13.351562 33.140625 C 14.191406 32.300781 15.070312 31.503906 15.988281 30.753906 C 16.90625 30 17.855469 29.292969 18.84375 28.632812 C 19.832031 27.976562 20.847656 27.367188 21.894531 26.804688 C 22.941406 26.246094 24.015625 25.742188 25.109375 25.285156 C 26.207031 24.832031 27.324219 24.433594 28.460938 24.089844 C 29.59375 23.742188 30.746094 23.457031 31.910156 23.222656 C 33.074219 22.992188 34.246094 22.820312 35.429688 22.703125 C 36.609375 22.585938 37.792969 22.527344 38.980469 22.527344 Z M 38.980469 22.527344 " fill-opacity="1" fill-rule="nonzero"/></g><path fill="#ffffff" d="M 276.546875 91.496094 L 276.546875 142.558594 L 282.917969 142.558594 L 282.917969 124.335938 L 295.769531 124.335938 C 305.359375 124.335938 312.191406 117.574219 312.191406 108.019531 C 312.191406 98.289062 305.5 91.496094 295.839844 91.496094 Z M 282.917969 97.15625 L 294.175781 97.15625 C 301.570312 97.15625 305.644531 101.015625 305.644531 108.019531 C 305.644531 114.78125 301.429688 118.671875 294.175781 118.671875 L 282.917969 118.671875 Z M 335.023438 143.230469 C 345.886719 143.230469 352.613281 135.730469 352.613281 123.484375 C 352.613281 111.207031 345.886719 103.738281 335.023438 103.738281 C 324.15625 103.738281 317.429688 111.207031 317.429688 123.484375 C 317.429688 135.730469 324.15625 143.230469 335.023438 143.230469 Z M 335.023438 137.746094 C 327.800781 137.746094 323.730469 132.507812 323.730469 123.484375 C 323.730469 114.425781 327.800781 109.222656 335.023438 109.222656 C 342.242188 109.222656 346.3125 114.425781 346.3125 123.484375 C 346.3125 132.507812 342.242188 137.746094 335.023438 137.746094 Z M 407.296875 104.410156 L 401.175781 104.410156 L 393.671875 134.914062 L 393.105469 134.914062 L 384.574219 104.410156 L 378.734375 104.410156 L 370.207031 134.914062 L 369.640625 134.914062 L 362.136719 104.410156 L 355.976562 104.410156 L 366.664062 142.558594 L 372.824219 142.558594 L 381.320312 113.046875 L 381.886719 113.046875 L 390.414062 142.558594 L 396.609375 142.558594 Z M 427.792969 109.117188 C 433.847656 109.117188 437.878906 113.578125 438.023438 120.335938 L 416.996094 120.335938 C 417.457031 113.578125 421.707031 109.117188 427.792969 109.117188 Z M 437.84375 132.683594 C 436.253906 136.046875 432.925781 137.851562 428.003906 137.851562 C 421.527344 137.851562 417.316406 133.074219 416.996094 125.539062 L 416.996094 125.253906 L 444.429688 125.253906 L 444.429688 122.917969 C 444.429688 111.066406 438.164062 103.738281 427.863281 103.738281 C 417.386719 103.738281 410.664062 111.523438 410.664062 123.519531 C 410.664062 135.585938 417.28125 143.230469 427.863281 143.230469 C 436.21875 143.230469 442.164062 139.195312 443.933594 132.683594 Z M 452.535156 142.558594 L 458.621094 142.558594 L 458.621094 118.917969 C 458.621094 113.542969 462.835938 109.648438 468.640625 109.648438 C 469.84375 109.648438 472.039062 109.859375 472.535156 110.003906 L 472.535156 103.917969 C 471.757812 103.808594 470.480469 103.738281 469.492188 103.738281 C 464.429688 103.738281 460.039062 106.359375 458.90625 110.074219 L 458.339844 110.074219 L 458.339844 104.410156 L 452.535156 104.410156 Z M 492.851562 109.117188 C 498.902344 109.117188 502.941406 113.578125 503.082031 120.335938 L 482.054688 120.335938 C 482.515625 113.578125 486.765625 109.117188 492.851562 109.117188 Z M 502.902344 132.683594 C 501.308594 136.046875 497.984375 137.851562 493.0625 137.851562 C 486.585938 137.851562 482.375 133.074219 482.054688 125.539062 L 482.054688 125.253906 L 509.484375 125.253906 L 509.484375 122.917969 C 509.484375 111.066406 503.21875 103.738281 492.921875 103.738281 C 482.445312 103.738281 475.71875 111.523438 475.71875 123.519531 C 475.71875 135.585938 482.339844 143.230469 492.921875 143.230469 C 501.277344 143.230469 507.222656 139.195312 508.992188 132.683594 Z M 531.71875 143.230469 C 536.992188 143.230469 541.523438 140.71875 543.925781 136.472656 L 544.492188 136.472656 L 544.492188 142.558594 L 550.296875 142.558594 L 550.296875 89.265625 L 544.210938 89.265625 L 544.210938 110.425781 L 543.679688 110.425781 C 541.523438 106.25 537.027344 103.738281 531.71875 103.738281 C 522.019531 103.738281 515.683594 111.523438 515.683594 123.484375 C 515.683594 135.480469 521.945312 143.230469 531.71875 143.230469 Z M 533.132812 109.222656 C 540.035156 109.222656 544.351562 114.746094 544.351562 123.484375 C 544.351562 132.296875 540.066406 137.746094 533.132812 137.746094 C 526.160156 137.746094 521.980469 132.402344 521.980469 123.484375 C 521.980469 114.601562 526.195312 109.222656 533.132812 109.222656 Z M 598.652344 143.230469 C 608.316406 143.230469 614.648438 135.410156 614.648438 123.484375 C 614.648438 111.488281 608.347656 103.738281 598.652344 103.738281 C 593.414062 103.738281 588.773438 106.324219 586.6875 110.425781 L 586.121094 110.425781 L 586.121094 89.265625 L 580.03125 89.265625 L 580.03125 142.558594 L 585.839844 142.558594 L 585.839844 136.472656 L 586.40625 136.472656 C 588.8125 140.71875 593.339844 143.230469 598.652344 143.230469 Z M 597.234375 109.222656 C 604.207031 109.222656 608.347656 114.566406 608.347656 123.484375 C 608.347656 132.402344 604.207031 137.746094 597.234375 137.746094 C 590.296875 137.746094 585.980469 132.296875 585.980469 123.484375 C 585.980469 114.675781 590.296875 109.222656 597.234375 109.222656 Z M 624.597656 156.359375 C 631.355469 156.359375 634.402344 153.742188 637.652344 144.894531 L 652.558594 104.410156 L 646.082031 104.410156 L 635.636719 135.800781 L 635.070312 135.800781 L 624.597656 104.410156 L 618.015625 104.410156 L 632.136719 142.59375 L 631.425781 144.859375 C 629.835938 149.457031 627.921875 151.121094 624.421875 151.121094 C 623.570312 151.121094 622.613281 151.085938 621.871094 150.945312 L 621.871094 156.144531 C 622.722656 156.289062 623.78125 156.359375 624.597656 156.359375 Z M 703.386719 142.558594 L 721.046875 91.496094 L 711.316406 91.496094 L 698.570312 131.90625 L 697.972656 131.90625 L 685.125 91.496094 L 675.035156 91.496094 L 692.875 142.558594 Z M 739.703125 110.039062 C 744.976562 110.039062 748.449219 113.71875 748.625 119.449219 L 730.394531 119.449219 C 730.78125 113.789062 734.464844 110.039062 739.703125 110.039062 Z M 748.691406 131.90625 C 747.417969 134.773438 744.410156 136.367188 740.058594 136.367188 C 734.289062 136.367188 730.570312 132.332031 730.355469 125.890625 L 730.355469 125.429688 L 757.398438 125.429688 L 757.398438 122.601562 C 757.398438 110.390625 750.78125 103.066406 739.738281 103.066406 C 728.519531 103.066406 721.546875 110.886719 721.546875 123.34375 C 721.546875 135.800781 728.414062 143.335938 739.808594 143.335938 C 748.941406 143.335938 755.417969 138.949219 757.011719 131.90625 Z M 764.761719 142.558594 L 773.542969 142.558594 L 773.542969 120.195312 C 773.542969 114.78125 777.507812 111.242188 783.207031 111.242188 C 784.691406 111.242188 787.023438 111.488281 787.699219 111.738281 L 787.699219 103.597656 C 786.882812 103.351562 785.324219 103.207031 784.050781 103.207031 C 779.066406 103.207031 774.886719 106.039062 773.824219 109.859375 L 773.226562 109.859375 L 773.226562 103.84375 L 764.761719 103.84375 Z M 825.929688 116.867188 C 825.007812 108.730469 818.988281 103.066406 809.042969 103.066406 C 797.398438 103.066406 790.566406 110.535156 790.566406 123.09375 C 790.566406 135.835938 797.4375 143.335938 809.078125 143.335938 C 818.882812 143.335938 824.972656 137.886719 825.929688 129.785156 L 817.574219 129.785156 C 816.652344 133.816406 813.609375 135.976562 809.042969 135.976562 C 803.0625 135.976562 799.453125 131.234375 799.453125 123.09375 C 799.453125 115.0625 803.027344 110.425781 809.042969 110.425781 C 813.859375 110.425781 816.757812 113.117188 817.574219 116.867188 Z M 849.109375 110.039062 C 854.382812 110.039062 857.855469 113.71875 858.03125 119.449219 L 839.800781 119.449219 C 840.191406 113.789062 843.875 110.039062 849.109375 110.039062 Z M 858.105469 131.90625 C 856.824219 134.773438 853.816406 136.367188 849.464844 136.367188 C 843.695312 136.367188 839.980469 132.332031 839.769531 125.890625 L 839.769531 125.429688 L 866.808594 125.429688 L 866.808594 122.601562 C 866.808594 110.390625 860.1875 103.066406 849.148438 103.066406 C 837.925781 103.066406 830.953125 110.886719 830.953125 123.34375 C 830.953125 135.800781 837.820312 143.335938 849.21875 143.335938 C 858.347656 143.335938 864.828125 138.949219 866.417969 131.90625 Z M 874.527344 142.558594 L 883.300781 142.558594 L 883.300781 88.878906 L 874.527344 88.878906 Z M 874.527344 142.558594 " fill-opacity="1" fill-rule="nonzero"/><path fill="#ffffff" d="M 108.410156 81.410156 L 150.65625 153.882812 L 66.164062 153.882812 Z M 108.410156 81.410156 " fill-opacity="1" fill-rule="nonzero"/><g clip-path="url(#f64b4e6bf1)"><path stroke-linecap="butt" transform="matrix(4.530499, 0, 0, 4.529445, 2.736383, 22.527842)" fill="none" stroke-linejoin="miter" d="M 43.499868 -0.00010992 L 43.499868 44.000173 " stroke="#5e5e5e" stroke-width="1" stroke-opacity="1" stroke-miterlimit="4"/></g><g clip-path="url(#df94b73ab8)"><path fill="#000000" d="M 40.828125 67.167969 L 168.777344 67.167969 L 168.777344 192.1875 L 40.828125 192.1875 Z M 40.828125 67.167969 " fill-opacity="1" fill-rule="nonzero"/></g><g clip-path="url(#1b332431a9)"><path fill="#000000" d="M 234.890625 68.003906 L 936.574219 68.003906 L 936.574219 173.417969 L 234.890625 173.417969 Z M 234.890625 68.003906 " fill-opacity="1" fill-rule="nonzero"/></g><g fill="#ffffff" fill-opacity="1"><g transform="translate(52.894155, 115.997943)"><g><path d="M 18.171875 0 L 18.171875 -38.671875 L 2.109375 -38.671875 L 2.109375 -52.765625 L 49.375 -52.765625 L 49.375 -38.671875 L 33.3125 -38.671875 L 33.3125 0 Z M 18.171875 0 "/></g></g></g><g fill="#ffffff" fill-opacity="1"><g transform="translate(38.304983, 178.066946)"><g><path d="M 31.15625 1.171875 C 25.507812 1.171875 20.550781 -0.0195312 16.28125 -2.40625 C 12.007812 -4.789062 8.664062 -8.117188 6.25 -12.390625 C 3.84375 -16.660156 2.640625 -21.597656 2.640625 -27.203125 C 2.640625 -32.796875 3.832031 -37.726562 6.21875 -42 C 8.601562 -46.269531 11.929688 -49.597656 16.203125 -51.984375 C 20.472656 -54.367188 25.40625 -55.5625 31 -55.5625 C 35.875 -55.5625 40.28125 -54.628906 44.21875 -52.765625 C 48.15625 -50.898438 51.457031 -48.28125 54.125 -44.90625 C 56.789062 -41.539062 58.585938 -37.554688 59.515625 -32.953125 L 43.671875 -32.953125 C 42.835938 -35.378906 41.332031 -37.332031 39.15625 -38.8125 C 36.988281 -40.289062 34.476562 -41.03125 31.625 -41.03125 C 29.082031 -41.03125 26.828125 -40.445312 24.859375 -39.28125 C 22.890625 -38.113281 21.347656 -36.492188 20.234375 -34.421875 C 19.128906 -32.347656 18.578125 -29.941406 18.578125 -27.203125 C 18.578125 -24.503906 19.117188 -22.101562 20.203125 -20 C 21.285156 -17.90625 22.796875 -16.273438 24.734375 -15.109375 C 26.679688 -13.941406 28.925781 -13.359375 31.46875 -13.359375 C 34.425781 -13.359375 36.988281 -14.125 39.15625 -15.65625 C 41.332031 -17.1875 42.914062 -19.21875 43.90625 -21.75 L 59.828125 -21.75 C 59.054688 -17.144531 57.347656 -13.117188 54.703125 -9.671875 C 52.054688 -6.222656 48.726562 -3.550781 44.71875 -1.65625 C 40.707031 0.226562 36.1875 1.171875 31.15625 1.171875 Z M 31.15625 1.171875 "/></g></g></g><g fill="#ffffff" fill-opacity="1"><g transform="translate(159.210347, 123.632123)"><g><path d="M 0 -5.75 L -54.390625 -5.75 L -54.390625 -43.046875 L -41.734375 -43.046875 L -41.734375 -21.296875 L -33.796875 -21.296875 L -33.796875 -40.953125 L -21.21875 -40.953125 L -21.21875 -21.296875 L -12.828125 -21.296875 L -12.828125 -43.90625 L 0 -43.90625 Z M 0 -5.75 "/></g></g></g><g fill="#ffffff" fill-opacity="1"><g transform="translate(158.392939, 178.341596)"><g><path d="M 0 -18.71875 L -39.859375 -18.71875 L -39.859375 -2.171875 L -54.390625 -2.171875 L -54.390625 -50.890625 L -39.859375 -50.890625 L -39.859375 -34.34375 L 0 -34.34375 Z M 0 -18.71875 "/></g></g></g><g fill="#ffffff" fill-opacity="1"><g transform="translate(236.208675, 149.473162)"><g><path d="M 40.296875 -37 C 40.296875 -31.71875 38.488281 -27.65625 34.875 -24.8125 C 31.269531 -21.96875 26.109375 -20.546875 19.390625 -20.546875 L 13.25 -20.546875 L 13.25 0 L 7.1875 0 L 7.1875 -52.21875 L 20.71875 -52.21875 C 33.769531 -52.21875 40.296875 -47.144531 40.296875 -37 Z M 13.25 -25.75 L 18.71875 -25.75 C 24.101562 -25.75 27.992188 -26.617188 30.390625 -28.359375 C 32.796875 -30.097656 34 -32.882812 34 -36.71875 C 34 -40.175781 32.867188 -42.75 30.609375 -44.4375 C 28.347656 -46.125 24.828125 -46.96875 20.046875 -46.96875 L 13.25 -46.96875 Z M 13.25 -25.75 "/></g></g></g><g fill="#ffffff" fill-opacity="1"><g transform="translate(280.244914, 149.473162)"><g><path d="M 40.078125 -19.609375 C 40.078125 -13.222656 38.46875 -8.238281 35.25 -4.65625 C 32.039062 -1.070312 27.601562 0.71875 21.9375 0.71875 C 18.4375 0.71875 15.328125 -0.101562 12.609375 -1.75 C 9.890625 -3.394531 7.789062 -5.753906 6.3125 -8.828125 C 4.84375 -11.898438 4.109375 -15.492188 4.109375 -19.609375 C 4.109375 -25.992188 5.703125 -30.960938 8.890625 -34.515625 C 12.085938 -38.078125 16.519531 -39.859375 22.1875 -39.859375 C 27.65625 -39.859375 32.003906 -38.035156 35.234375 -34.390625 C 38.460938 -30.753906 40.078125 -25.828125 40.078125 -19.609375 Z M 10.25 -19.609375 C 10.25 -14.609375 11.25 -10.796875 13.25 -8.171875 C 15.25 -5.554688 18.191406 -4.25 22.078125 -4.25 C 25.953125 -4.25 28.894531 -5.550781 30.90625 -8.15625 C 32.925781 -10.769531 33.9375 -14.585938 33.9375 -19.609375 C 33.9375 -24.585938 32.925781 -28.367188 30.90625 -30.953125 C 28.894531 -33.535156 25.925781 -34.828125 22 -34.828125 C 18.125 -34.828125 15.195312 -33.550781 13.21875 -31 C 11.238281 -28.457031 10.25 -24.660156 10.25 -19.609375 Z M 10.25 -19.609375 "/></g></g></g><g fill="#ffffff" fill-opacity="1"><g transform="translate(324.424011, 149.473162)"><g><path d="M 38.25 0 L 31.078125 -22.96875 C 30.617188 -24.375 29.773438 -27.566406 28.546875 -32.546875 L 28.25 -32.546875 C 27.300781 -28.378906 26.46875 -25.160156 25.75 -22.890625 L 18.359375 0 L 11.5 0 L 0.828125 -39.15625 L 7.03125 -39.15625 C 9.5625 -29.3125 11.484375 -21.816406 12.796875 -16.671875 C 14.117188 -11.535156 14.878906 -8.070312 15.078125 -6.28125 L 15.359375 -6.28125 C 15.617188 -7.644531 16.039062 -9.398438 16.625 -11.546875 C 17.207031 -13.703125 17.710938 -15.414062 18.140625 -16.6875 L 25.328125 -39.15625 L 31.75 -39.15625 L 38.75 -16.6875 C 40.082031 -12.582031 40.988281 -9.140625 41.46875 -6.359375 L 41.75 -6.359375 C 41.851562 -7.210938 42.113281 -8.53125 42.53125 -10.3125 C 42.945312 -12.101562 45.425781 -21.71875 49.96875 -39.15625 L 56.125 -39.15625 L 45.296875 0 Z M 38.25 0 "/></g></g></g><g fill="#ffffff" fill-opacity="1"><g transform="translate(381.317545, 149.473162)"><g><path d="M 22.828125 0.71875 C 17.035156 0.71875 12.46875 -1.039062 9.125 -4.5625 C 5.78125 -8.09375 4.109375 -12.988281 4.109375 -19.25 C 4.109375 -25.5625 5.660156 -30.570312 8.765625 -34.28125 C 11.878906 -38 16.054688 -39.859375 21.296875 -39.859375 C 26.191406 -39.859375 30.066406 -38.242188 32.921875 -35.015625 C 35.785156 -31.796875 37.21875 -27.539062 37.21875 -22.25 L 37.21875 -18.5 L 10.25 -18.5 C 10.375 -13.90625 11.535156 -10.414062 13.734375 -8.03125 C 15.929688 -5.65625 19.035156 -4.46875 23.046875 -4.46875 C 27.253906 -4.46875 31.421875 -5.347656 35.546875 -7.109375 L 35.546875 -1.828125 C 33.453125 -0.921875 31.46875 -0.269531 29.59375 0.125 C 27.726562 0.519531 25.472656 0.71875 22.828125 0.71875 Z M 21.21875 -34.90625 C 18.070312 -34.90625 15.5625 -33.878906 13.6875 -31.828125 C 11.820312 -29.773438 10.722656 -26.941406 10.390625 -23.328125 L 30.859375 -23.328125 C 30.859375 -27.066406 30.023438 -29.929688 28.359375 -31.921875 C 26.691406 -33.910156 24.3125 -34.90625 21.21875 -34.90625 Z M 21.21875 -34.90625 "/></g></g></g><g fill="#ffffff" fill-opacity="1"><g transform="translate(422.353748, 149.473162)"><g><path d="M 24.140625 -39.859375 C 25.878906 -39.859375 27.441406 -39.71875 28.828125 -39.4375 L 28 -33.9375 C 26.382812 -34.289062 24.957031 -34.46875 23.71875 -34.46875 C 20.550781 -34.46875 17.84375 -33.179688 15.59375 -30.609375 C 13.34375 -28.035156 12.21875 -24.832031 12.21875 -21 L 12.21875 0 L 6.28125 0 L 6.28125 -39.15625 L 11.1875 -39.15625 L 11.859375 -31.90625 L 12.140625 -31.90625 C 13.597656 -34.445312 15.347656 -36.40625 17.390625 -37.78125 C 19.441406 -39.164062 21.691406 -39.859375 24.140625 -39.859375 Z M 24.140625 -39.859375 "/></g></g></g><g fill="#ffffff" fill-opacity="1"><g transform="translate(452.211246, 149.473162)"><g><path d="M 22.828125 0.71875 C 17.035156 0.71875 12.46875 -1.039062 9.125 -4.5625 C 5.78125 -8.09375 4.109375 -12.988281 4.109375 -19.25 C 4.109375 -25.5625 5.660156 -30.570312 8.765625 -34.28125 C 11.878906 -38 16.054688 -39.859375 21.296875 -39.859375 C 26.191406 -39.859375 30.066406 -38.242188 32.921875 -35.015625 C 35.785156 -31.796875 37.21875 -27.539062 37.21875 -22.25 L 37.21875 -18.5 L 10.25 -18.5 C 10.375 -13.90625 11.535156 -10.414062 13.734375 -8.03125 C 15.929688 -5.65625 19.035156 -4.46875 23.046875 -4.46875 C 27.253906 -4.46875 31.421875 -5.347656 35.546875 -7.109375 L 35.546875 -1.828125 C 33.453125 -0.921875 31.46875 -0.269531 29.59375 0.125 C 27.726562 0.519531 25.472656 0.71875 22.828125 0.71875 Z M 21.21875 -34.90625 C 18.070312 -34.90625 15.5625 -33.878906 13.6875 -31.828125 C 11.820312 -29.773438 10.722656 -26.941406 10.390625 -23.328125 L 30.859375 -23.328125 C 30.859375 -27.066406 30.023438 -29.929688 28.359375 -31.921875 C 26.691406 -33.910156 24.3125 -34.90625 21.21875 -34.90625 Z M 21.21875 -34.90625 "/></g></g></g><g fill="#ffffff" fill-opacity="1"><g transform="translate(493.247449, 149.473162)"><g><path d="M 32.9375 -5.25 L 32.609375 -5.25 C 29.867188 -1.269531 25.773438 0.71875 20.328125 0.71875 C 15.203125 0.71875 11.21875 -1.03125 8.375 -4.53125 C 5.53125 -8.03125 4.109375 -13.007812 4.109375 -19.46875 C 4.109375 -25.914062 5.535156 -30.925781 8.390625 -34.5 C 11.253906 -38.070312 15.234375 -39.859375 20.328125 -39.859375 C 25.640625 -39.859375 29.710938 -37.929688 32.546875 -34.078125 L 33 -34.078125 L 32.75 -36.90625 L 32.609375 -39.65625 L 32.609375 -55.578125 L 38.546875 -55.578125 L 38.546875 0 L 33.71875 0 Z M 21.078125 -4.25 C 25.117188 -4.25 28.050781 -5.347656 29.875 -7.546875 C 31.695312 -9.753906 32.609375 -13.3125 32.609375 -18.21875 L 32.609375 -19.46875 C 32.609375 -25.019531 31.6875 -28.976562 29.84375 -31.34375 C 28 -33.71875 25.050781 -34.90625 21 -34.90625 C 17.519531 -34.90625 14.859375 -33.550781 13.015625 -30.84375 C 11.171875 -28.144531 10.25 -24.328125 10.25 -19.390625 C 10.25 -14.390625 11.164062 -10.613281 13 -8.0625 C 14.832031 -5.519531 17.523438 -4.25 21.078125 -4.25 Z M 21.078125 -4.25 "/></g></g></g><g fill="#ffffff" fill-opacity="1"><g transform="translate(538.069411, 149.473162)"><g/></g></g><g fill="#ffffff" fill-opacity="1"><g transform="translate(557.069637, 149.473162)"><g><path d="M 24.5 -39.796875 C 29.644531 -39.796875 33.640625 -38.035156 36.484375 -34.515625 C 39.328125 -31.003906 40.75 -26.035156 40.75 -19.609375 C 40.75 -13.179688 39.316406 -8.1875 36.453125 -4.625 C 33.585938 -1.0625 29.601562 0.71875 24.5 0.71875 C 21.957031 0.71875 19.628906 0.25 17.515625 -0.6875 C 15.410156 -1.632812 13.644531 -3.082031 12.21875 -5.03125 L 11.78125 -5.03125 L 10.53125 0 L 6.28125 0 L 6.28125 -55.578125 L 12.21875 -55.578125 L 12.21875 -42.078125 C 12.21875 -39.054688 12.125 -36.34375 11.9375 -33.9375 L 12.21875 -33.9375 C 14.976562 -37.84375 19.070312 -39.796875 24.5 -39.796875 Z M 23.640625 -34.828125 C 19.597656 -34.828125 16.679688 -33.664062 14.890625 -31.34375 C 13.109375 -29.019531 12.21875 -25.109375 12.21875 -19.609375 C 12.21875 -14.109375 13.132812 -10.171875 14.96875 -7.796875 C 16.800781 -5.429688 19.742188 -4.25 23.796875 -4.25 C 27.429688 -4.25 30.140625 -5.578125 31.921875 -8.234375 C 33.710938 -10.890625 34.609375 -14.707031 34.609375 -19.6875 C 34.609375 -24.78125 33.710938 -28.578125 31.921875 -31.078125 C 30.140625 -33.578125 27.378906 -34.828125 23.640625 -34.828125 Z M 23.640625 -34.828125 "/></g></g></g><g fill="#ffffff" fill-opacity="1"><g transform="translate(601.891599, 149.473162)"><g><path d="M 0.078125 -39.15625 L 6.4375 -39.15625 L 15 -16.828125 C 16.882812 -11.734375 18.050781 -8.050781 18.5 -5.78125 L 18.796875 -5.78125 C 19.097656 -7 19.742188 -9.078125 20.734375 -12.015625 C 21.722656 -14.960938 24.957031 -24.007812 30.4375 -39.15625 L 36.796875 -39.15625 L 19.96875 5.421875 C 18.300781 9.828125 16.351562 12.953125 14.125 14.796875 C 11.894531 16.648438 9.160156 17.578125 5.921875 17.578125 C 4.117188 17.578125 2.335938 17.375 0.578125 16.96875 L 0.578125 12.21875 C 1.878906 12.5 3.34375 12.640625 4.96875 12.640625 C 9.039062 12.640625 11.945312 10.351562 13.6875 5.78125 L 15.859375 0.21875 Z M 0.078125 -39.15625 "/></g></g></g><g fill="#ffffff" fill-opacity="1"><g transform="translate(638.756726, 149.473162)"><g/></g></g><g fill="#ffffff" fill-opacity="1"><g transform="translate(657.756952, 149.473162)"><g><path d="M 26.71875 0 L 15.640625 0 L 15.640625 -43.015625 L 1.46875 -43.015625 L 1.46875 -52.21875 L 40.90625 -52.21875 L 40.90625 -43.015625 L 26.71875 -43.015625 Z M 26.71875 0 "/></g></g></g><g fill="#ffffff" fill-opacity="1"><g transform="translate(700.114599, 149.473162)"><g><path d="M 22.25 -32.9375 C 19.945312 -32.9375 18.140625 -32.203125 16.828125 -30.734375 C 15.515625 -29.273438 14.765625 -27.195312 14.578125 -24.5 L 29.859375 -24.5 C 29.816406 -27.195312 29.113281 -29.273438 27.75 -30.734375 C 26.394531 -32.203125 24.5625 -32.9375 22.25 -32.9375 Z M 23.796875 0.71875 C 17.359375 0.71875 12.328125 -1.054688 8.703125 -4.609375 C 5.085938 -8.160156 3.28125 -13.1875 3.28125 -19.6875 C 3.28125 -26.375 4.953125 -31.546875 8.296875 -35.203125 C 11.648438 -38.859375 16.28125 -40.6875 22.1875 -40.6875 C 27.832031 -40.6875 32.222656 -39.078125 35.359375 -35.859375 C 38.503906 -32.648438 40.078125 -28.210938 40.078125 -22.546875 L 40.078125 -17.25 L 14.328125 -17.25 C 14.441406 -14.15625 15.351562 -11.738281 17.0625 -10 C 18.78125 -8.257812 21.191406 -7.390625 24.296875 -7.390625 C 26.691406 -7.390625 28.960938 -7.640625 31.109375 -8.140625 C 33.253906 -8.640625 35.492188 -9.4375 37.828125 -10.53125 L 37.828125 -2.109375 C 35.921875 -1.148438 33.882812 -0.441406 31.71875 0.015625 C 29.550781 0.484375 26.910156 0.71875 23.796875 0.71875 Z M 23.796875 0.71875 "/></g></g></g><g fill="#ffffff" fill-opacity="1"><g transform="translate(743.329399, 149.473162)"><g><path d="M 21.9375 0.71875 C 9.5 0.71875 3.28125 -6.101562 3.28125 -19.75 C 3.28125 -26.539062 4.972656 -31.726562 8.359375 -35.3125 C 11.742188 -38.894531 16.585938 -40.6875 22.890625 -40.6875 C 27.515625 -40.6875 31.660156 -39.78125 35.328125 -37.96875 L 32.109375 -29.546875 C 30.398438 -30.234375 28.804688 -30.796875 27.328125 -31.234375 C 25.847656 -31.679688 24.367188 -31.90625 22.890625 -31.90625 C 17.222656 -31.90625 14.390625 -27.878906 14.390625 -19.828125 C 14.390625 -12.015625 17.222656 -8.109375 22.890625 -8.109375 C 24.992188 -8.109375 26.9375 -8.382812 28.71875 -8.9375 C 30.507812 -9.5 32.296875 -10.378906 34.078125 -11.578125 L 34.078125 -2.25 C 32.316406 -1.132812 30.535156 -0.363281 28.734375 0.0625 C 26.941406 0.5 24.675781 0.71875 21.9375 0.71875 Z M 21.9375 0.71875 "/></g></g></g><g fill="#ffffff" fill-opacity="1"><g transform="translate(780.936989, 149.473162)"><g><path d="M 22.546875 -7.96875 C 24.441406 -7.96875 26.722656 -8.382812 29.390625 -9.21875 L 29.390625 -1.109375 C 26.679688 0.109375 23.347656 0.71875 19.390625 0.71875 C 15.035156 0.71875 11.863281 -0.378906 9.875 -2.578125 C 7.882812 -4.785156 6.890625 -8.09375 6.890625 -12.5 L 6.890625 -31.75 L 1.671875 -31.75 L 1.671875 -36.359375 L 7.6875 -40 L 10.828125 -48.4375 L 17.78125 -48.4375 L 17.78125 -39.9375 L 28.96875 -39.9375 L 28.96875 -31.75 L 17.78125 -31.75 L 17.78125 -12.5 C 17.78125 -10.957031 18.210938 -9.816406 19.078125 -9.078125 C 19.953125 -8.335938 21.109375 -7.96875 22.546875 -7.96875 Z M 22.546875 -7.96875 "/></g></g></g><g fill="#ffffff" fill-opacity="1"><g transform="translate(812.687367, 149.473162)"><g><path d="M 28 -40.6875 C 29.476562 -40.6875 30.707031 -40.578125 31.6875 -40.359375 L 30.859375 -30.140625 C 29.984375 -30.378906 28.910156 -30.5 27.640625 -30.5 C 24.171875 -30.5 21.460938 -29.601562 19.515625 -27.8125 C 17.578125 -26.03125 16.609375 -23.535156 16.609375 -20.328125 L 16.609375 0 L 5.71875 0 L 5.71875 -39.9375 L 13.96875 -39.9375 L 15.578125 -33.21875 L 16.109375 -33.21875 C 17.347656 -35.457031 19.019531 -37.257812 21.125 -38.625 C 23.238281 -40 25.53125 -40.6875 28 -40.6875 Z M 28 -40.6875 "/></g></g></g><g fill="#ffffff" fill-opacity="1"><g transform="translate(845.902048, 149.473162)"><g><path d="M 22.25 -32.9375 C 19.945312 -32.9375 18.140625 -32.203125 16.828125 -30.734375 C 15.515625 -29.273438 14.765625 -27.195312 14.578125 -24.5 L 29.859375 -24.5 C 29.816406 -27.195312 29.113281 -29.273438 27.75 -30.734375 C 26.394531 -32.203125 24.5625 -32.9375 22.25 -32.9375 Z M 23.796875 0.71875 C 17.359375 0.71875 12.328125 -1.054688 8.703125 -4.609375 C 5.085938 -8.160156 3.28125 -13.1875 3.28125 -19.6875 C 3.28125 -26.375 4.953125 -31.546875 8.296875 -35.203125 C 11.648438 -38.859375 16.28125 -40.6875 22.1875 -40.6875 C 27.832031 -40.6875 32.222656 -39.078125 35.359375 -35.859375 C 38.503906 -32.648438 40.078125 -28.210938 40.078125 -22.546875 L 40.078125 -17.25 L 14.328125 -17.25 C 14.441406 -14.15625 15.351562 -11.738281 17.0625 -10 C 18.78125 -8.257812 21.191406 -7.390625 24.296875 -7.390625 C 26.691406 -7.390625 28.960938 -7.640625 31.109375 -8.140625 C 33.253906 -8.640625 35.492188 -9.4375 37.828125 -10.53125 L 37.828125 -2.109375 C 35.921875 -1.148438 33.882812 -0.441406 31.71875 0.015625 C 29.550781 0.484375 26.910156 0.71875 23.796875 0.71875 Z M 23.796875 0.71875 "/></g></g></g><g fill="#ffffff" fill-opacity="1"><g transform="translate(889.116848, 149.473162)"><g><path d="M 22.25 -32.9375 C 19.945312 -32.9375 18.140625 -32.203125 16.828125 -30.734375 C 15.515625 -29.273438 14.765625 -27.195312 14.578125 -24.5 L 29.859375 -24.5 C 29.816406 -27.195312 29.113281 -29.273438 27.75 -30.734375 C 26.394531 -32.203125 24.5625 -32.9375 22.25 -32.9375 Z M 23.796875 0.71875 C 17.359375 0.71875 12.328125 -1.054688 8.703125 -4.609375 C 5.085938 -8.160156 3.28125 -13.1875 3.28125 -19.6875 C 3.28125 -26.375 4.953125 -31.546875 8.296875 -35.203125 C 11.648438 -38.859375 16.28125 -40.6875 22.1875 -40.6875 C 27.832031 -40.6875 32.222656 -39.078125 35.359375 -35.859375 C 38.503906 -32.648438 40.078125 -28.210938 40.078125 -22.546875 L 40.078125 -17.25 L 14.328125 -17.25 C 14.441406 -14.15625 15.351562 -11.738281 17.0625 -10 C 18.78125 -8.257812 21.191406 -7.390625 24.296875 -7.390625 C 26.691406 -7.390625 28.960938 -7.640625 31.109375 -8.140625 C 33.253906 -8.640625 35.492188 -9.4375 37.828125 -10.53125 L 37.828125 -2.109375 C 35.921875 -1.148438 33.882812 -0.441406 31.71875 0.015625 C 29.550781 0.484375 26.910156 0.71875 23.796875 0.71875 Z M 23.796875 0.71875 "/></g></g></g></svg>